<svg width="33" height="33" viewBox="0 0 33 33" fill="none" xmlns="http://www.w3.org/2000/svg">
<path d="M16.0417 3.31793C20.3194 3.31793 20.8542 3.31793 22.592 3.45161C27.0035 3.58529 29.0087 5.72417 29.1424 10.002C29.276 11.7398 29.276 12.1408 29.276 16.4186C29.276 20.6964 29.276 21.2311 29.1424 22.8353C29.0087 27.1131 26.8698 29.252 22.592 29.3856C20.8542 29.5193 20.4531 29.5193 16.0417 29.5193C11.7639 29.5193 11.2292 29.5193 9.625 29.3856C5.21354 29.252 3.20833 27.1131 3.07465 22.8353C2.94097 21.0974 2.94097 20.6964 2.94097 16.4186C2.94097 12.1408 2.94097 11.6061 3.07465 10.002C3.20833 5.72417 5.34722 3.58529 9.625 3.45161C11.2292 3.31793 11.7639 3.31793 16.0417 3.31793ZM16.0417 0.376953C11.6302 0.376953 11.0955 0.376953 9.49132 0.510634C3.60937 0.777995 0.401042 3.98633 0.133681 9.86827C0 11.4724 0 12.0072 0 16.4186C0 20.8301 0 21.3648 0.133681 22.969C0.401042 28.8509 3.60937 32.0592 9.49132 32.3266C11.0955 32.4603 11.6302 32.4603 16.0417 32.4603C20.4531 32.4603 20.9878 32.4603 22.592 32.3266C28.474 32.0592 31.6823 28.8509 31.9496 22.969C32.0833 21.3648 32.0833 20.8301 32.0833 16.4186C32.0833 12.0072 32.0833 11.4724 31.9496 9.86827C31.6823 3.98633 28.474 0.777995 22.592 0.510634C20.9878 0.376953 20.4531 0.376953 16.0417 0.376953ZM16.0417 8.13043C11.4965 8.13043 7.75347 11.8735 7.75347 16.4186C7.75347 20.9638 11.4965 24.7068 16.0417 24.7068C20.5868 24.7068 24.3299 20.9638 24.3299 16.4186C24.3299 11.8735 20.5868 8.13043 16.0417 8.13043ZM16.0417 21.7658C13.1007 21.7658 10.6944 19.3596 10.6944 16.4186C10.6944 13.4776 13.1007 11.0714 16.0417 11.0714C18.9826 11.0714 21.3889 13.4776 21.3889 16.4186C21.3889 19.3596 18.9826 21.7658 16.0417 21.7658ZM24.5972 5.99154C23.5278 5.99154 22.7257 6.79362 22.7257 7.86306C22.7257 8.93251 23.5278 9.73459 24.5972 9.73459C25.6667 9.73459 26.4687 8.93251 26.4687 7.86306C26.4687 6.79362 25.6667 5.99154 24.5972 5.99154Z" fill="#91C0A7"/>
</svg>
