<svg width="36" height="27" viewBox="0 0 36 27" fill="none" xmlns="http://www.w3.org/2000/svg">
<path fillRule="evenodd" clipRule="evenodd" d="M28.9245 3.36606L28.9337 3.36684L28.943 3.36755C30.1136 3.45759 30.734 3.67977 31.0759 3.88342C31.3563 4.05051 31.6037 4.29296 31.8396 4.82745C32.1063 5.43149 32.334 6.36194 32.478 7.82119C32.6205 9.26476 32.6667 11.0515 32.6667 13.2928C32.6667 15.5337 32.6205 17.3307 32.4778 18.7869C32.3334 20.2599 32.1049 21.2064 31.8357 21.8217C31.5964 22.3688 31.3507 22.6021 31.0905 22.7551C30.7707 22.9431 30.1719 23.1541 29.0173 23.2133L29.0111 23.2136L29.0049 23.214C23.8735 23.499 12.3524 23.4996 7.19418 23.2158C6.04271 23.1243 5.42981 22.9041 5.09089 22.7022C4.81044 22.5351 4.56309 22.2927 4.32714 21.7582C4.0605 21.1541 3.83278 20.2237 3.68873 18.7644C3.54623 17.3208 3.50004 15.5341 3.50004 13.2928C3.50004 11.0515 3.54623 9.26476 3.68873 7.82119C3.83278 6.36194 4.0605 5.43149 4.32714 4.82745C4.56309 4.29296 4.81044 4.05051 5.09089 3.88342C5.4327 3.67977 6.05318 3.45759 7.22374 3.36755L7.233 3.36684L7.24226 3.36606C12.3311 2.942 23.8357 2.942 28.9245 3.36606ZM0.583374 13.2928C0.583374 22.3345 1.31254 25.6886 7.00004 26.1261C12.25 26.4178 23.9167 26.4178 29.1667 26.1261C34.8542 25.8345 35.5834 22.3345 35.5834 13.2928C35.5834 4.25114 34.8542 0.896973 29.1667 0.459473C23.9167 0.0219726 12.25 0.0219726 7.00004 0.459473C1.31254 0.896973 0.583374 4.25114 0.583374 13.2928ZM15.8189 18.0709C14.8492 18.5558 13.7084 17.8507 13.7084 16.7666V9.81916C13.7084 8.73506 14.8492 8.02996 15.8189 8.51479L22.7663 11.9885C23.8411 12.5259 23.8412 14.0598 22.7663 14.5972L15.8189 18.0709Z" fill="#91C0A7"/>
</svg>
