<svg width="328" height="111" viewBox="0 0 328 111" fill="none" xmlns="http://www.w3.org/2000/svg">
<path d="M120.478 102.619H124.63C128.37 102.619 130.24 100.188 130.24 96.4845C130.24 91.7353 125.565 90.8371 125.527 88.3686C125.527 86.349 128.669 85.2271 128.669 81.4859C128.669 78.831 127.136 77.1103 124.143 77.1103H119.842C118.346 77.1103 118.084 77.7834 118.084 81.4485V99.9254C118.084 101.609 118.084 102.619 120.478 102.619ZM124.181 76.774C129.043 76.774 131.213 78.6442 131.213 81.3742C131.213 85.7124 125.827 85.9749 125.827 88.3313C125.827 90.6503 133.457 91.5102 133.457 97.0081C133.457 100.113 130.614 102.955 124.892 102.955H113.97C115.13 102.955 115.055 96.9333 115.055 93.3056V86.4237C115.055 82.796 115.13 76.774 113.97 76.774H124.181Z" fill="#5B765D"/>
<path d="M166.992 101.16V102.955H149.525C150.684 102.955 150.61 96.9333 150.61 93.3056V86.4237C150.61 82.796 150.684 76.774 149.525 76.774H166.057V78.5312C164 77.5592 161.269 77.1103 157.567 77.1103H153.639V89.0043H156.182C158.576 89.0043 160.821 88.7428 162.017 88.1444V90.2014C160.821 89.6026 158.576 89.3415 156.182 89.3415H153.639V99.2523C153.639 101.235 154.462 102.544 156.818 102.619H158.502C162.204 102.619 164.935 102.133 166.992 101.16Z" fill="#5B765D"/>
<path d="M187.49 94.5031H198.748L193.063 80.2154L187.49 94.5031ZM185.395 98.6549L194.297 76.1383H194.521L203.685 98.3933C204.62 100.674 205.704 102.956 206.677 102.956H200.842C201.964 102.956 200.917 99.9636 200.094 97.8697L198.897 94.8398H187.377L185.881 98.7296C184.984 101.049 184.423 102.956 184.871 102.956H183.076C183.675 102.956 184.572 100.787 185.395 98.6549Z" fill="#5B765D"/>
<path d="M241.496 81.79C238.84 78.4608 235.549 76.9652 232.519 76.9652C227.582 76.9652 223.319 80.8919 223.319 87.0638C223.319 96.6387 229.415 101.65 235.512 101.65C238.616 101.65 241.72 100.342 244.002 97.6854L244.114 97.8358C241.234 101.501 237.157 103.259 233.193 103.259C226.685 103.259 220.513 98.5462 220.513 89.9442C220.513 80.6303 226.796 76.5537 233.417 76.5537C236.746 76.5537 240.187 77.5635 242.954 79.5084L241.496 81.79Z" fill="#5B765D"/>
<path d="M281.325 102.955H276.088C277.248 102.955 277.211 97.0828 277.211 93.455V89.8268H264.344V93.3056C264.344 96.9333 264.344 102.955 265.466 102.955H260.23C261.39 102.955 261.352 97.0828 261.352 93.455V86.2738C261.352 82.6456 261.39 76.774 260.23 76.774H265.466C264.344 76.774 264.344 82.796 264.344 86.4237V89.491H277.211V86.2738C277.211 82.6456 277.248 76.774 276.088 76.774H281.325C280.203 76.774 280.203 82.796 280.203 86.4237V93.3056C280.203 96.9333 280.203 102.955 281.325 102.955Z" fill="#5B765D"/>
<path d="M222.35 1.26123V2.28739C220.229 2.62928 218.929 4.27151 218.929 5.91326V41.2799C218.929 52.0884 209.421 57.6979 200.049 57.6979C190.882 57.6979 181.784 52.3626 181.784 41.2799V6.32335C181.784 4.68206 180.689 3.03984 179.253 2.28739V1.26123H189.993V2.62928H185.478V3.7241C186.846 4.47655 187.462 6.11831 187.462 7.76006V41.2799C187.462 50.0361 195.466 54.9614 203.196 54.9614C210.447 54.9614 217.493 50.6517 217.493 41.2799V5.91326C217.493 4.27151 216.193 2.62928 214.073 2.28739V1.26123H222.35Z" fill="#5B765D"/>
<path d="M299.362 4.92007L288.143 33.8566C287.801 34.5408 287.664 35.2933 287.664 35.9775C287.733 37.6193 288.69 38.9873 290.811 38.9873H313.317L300.046 4.92007H299.362ZM279.797 51.3007L282.739 43.8439C283.833 41.1083 285.065 39.9453 286.775 39.4661L287.117 38.7823C286.57 37.9612 286.296 37.0032 286.296 35.9089C286.296 35.0878 286.433 34.1989 286.775 33.3096L298.952 2.04712H305.04L324.605 52.4637C325.357 54.4474 326.246 55.8155 327.889 55.8155V56.9103H317.217V55.8155C318.38 55.8155 318.79 55.1317 318.79 54.2424C318.79 53.3531 318.516 52.3956 318.174 51.5058C318.106 51.3689 318.038 51.3007 318.038 51.1644L317.832 50.7533C317.832 50.6851 317.832 50.617 317.764 50.617L313.865 40.424H290.88C287.527 40.424 285.407 40.971 284.039 44.3232L281.713 50.3432C281.439 51.027 281.371 51.6431 281.371 52.19C281.371 54.5843 283.286 55.8155 285.475 55.8155V56.9103H275.146V55.8155C278.087 55.8155 278.977 53.4899 279.797 51.3007Z" fill="#5B765D"/>
<path d="M41.6609 110.666C18.9491 110.666 0 91.648 0 68.4579C0 54.0922 7.31995 41.2314 20.1808 34.7326L21.8225 38.769C9.71415 45.131 2.25782 57.6494 2.25782 71.2627C2.25782 92.8797 21.1387 109.229 41.4554 109.229C59.9944 109.229 79.0799 95.6845 79.0799 77.2823C79.0799 55.734 61.7044 43.968 47.2704 34.2538C37.1457 27.4131 28.4582 21.5985 28.4582 13.9367C28.4582 6.2753 37.3512 0.665771 44.8076 0.665771C50.0747 0.665771 54.6586 0.939475 60.4731 3.26502V11.7475L59.0364 11.6793C58.0103 4.35984 51.0327 2.10248 45.4232 2.10248C40.0187 2.10248 33.0416 4.22299 33.0416 10.6532C33.0416 17.357 40.7029 22.6933 49.9384 29.123C64.1672 38.974 81.5428 51.3561 81.5428 72.152C81.5428 93.4266 63.3461 110.666 41.6609 110.666Z" fill="#5B765D"/>
<path d="M131.378 33.3661C131.378 19.0008 119.543 3.7458 104.083 3.7458C91.3591 3.7458 83.6286 14.1433 83.6286 25.7734C83.6286 40.0704 95.5319 55.3936 110.923 55.3936C123.716 55.3936 131.378 44.927 131.378 33.3661ZM107.503 0.94104C123.785 0.94104 136.372 14.0069 136.372 29.467C136.372 44.927 123.853 58.1302 107.572 58.1302C91.3591 58.1302 78.6352 44.9957 78.6352 29.5356C78.6352 14.0756 91.2905 0.94104 107.503 0.94104Z" fill="#5B765D"/>
<path d="M144.647 6.68382C144.647 5.04207 143.553 3.40031 142.116 2.64786V1.6217H152.857V2.64786C151.42 3.40031 150.325 5.04207 150.325 6.68382V53.8169C152.515 53.2695 154.772 52.9958 157.098 52.9958C164.349 52.9958 172.353 55.3219 180.63 57.7165C189.454 60.3153 198.622 62.9837 207.582 62.9837C212.85 62.9837 218.049 62.0262 222.975 59.6315L223.59 60.1789C217.228 65.5829 210.251 67.4302 202.931 67.4302C193.696 67.4302 183.982 64.3517 174.61 61.3419C161.339 57.1687 155.113 55.8011 149.504 55.7324C146.768 55.7324 144.374 56.0743 142.116 56.6899V55.3219C142.937 55.0481 144.032 54.9113 144.647 54.7744V6.68382Z" fill="#5B765D"/>
<path d="M227.608 2.71652V1.6217H238.417L266.874 53.9543V9.14669C266.874 5.79499 265.164 2.71652 262.428 2.71652V1.6217H272.758V2.71652C270.09 2.71652 268.311 5.79499 268.311 9.14669V56.4853H261.949L235.133 7.16304C234.723 6.47878 234.176 5.65814 233.423 4.97388V49.0285C233.423 52.312 235.201 55.3905 237.87 55.3905V56.4853H227.539V55.3905C230.208 55.3905 231.986 52.312 231.986 49.0285V3.87953C230.892 3.19527 229.455 2.71652 227.608 2.71652Z" fill="#5B765D"/>
<path d="M82.9027 51.6949C89.1578 51.6342 95.3866 50.3507 101.119 47.9083C106.855 45.4749 112.088 41.8981 116.438 37.4674C120.787 33.0354 124.248 27.7533 126.557 22.0158C128.874 16.2801 130.024 10.0975 129.969 3.93216C129.963 3.33337 130.444 2.84341 131.042 2.83781C131.641 2.83267 132.131 3.31329 132.137 3.91161V3.93216C132.077 10.3754 130.755 16.8 128.238 22.7117C125.73 28.6267 122.044 34.0223 117.478 38.5076C112.911 42.9919 107.466 46.5627 101.549 48.9457C95.6346 51.3371 89.2563 52.5249 82.9027 52.4688C82.6888 52.467 82.5169 52.2923 82.5188 52.0784C82.5207 51.8672 82.6926 51.6972 82.9027 51.6949Z" fill="#5B765D"/>
</svg>
